<?xml version="1.0" encoding="UTF-8"?>
<svg xmlns="http://www.w3.org/2000/svg" xmlns:xlink="http://www.w3.org/1999/xlink" width="567pt" height="464pt" viewBox="0 0 567 464" version="1.1">
<g id="surface114">
<path style=" stroke:none;fill-rule:nonzero;fill:rgb(25.098041%,75.686276%,91.764706%);fill-opacity:1;" d="M 458.886719 163.964844 C 445.789062 174.804688 426.277344 179.269531 408.425781 177.847656 C 421.53125 153.894531 438.390625 128.902344 438.390625 128.902344 L 436.199219 128.902344 C 430.773438 132.953125 409.066406 149.863281 389.632812 173.84375 C 384.070312 171.785156 379.097656 168.996094 375.113281 165.480469 C 350.316406 143.601562 354.699219 103.832031 380.4375 82.953125 C 400.933594 66.324219 426.191406 67.207031 447.925781 66.902344 C 470.847656 66.578125 487.742188 60.835938 487.742188 60.835938 C 487.742188 60.835938 502.410156 127.933594 458.886719 163.964844 M 430.722656 36.5625 C 372.421875 34.160156 323.640625 66.507812 321.953125 108.820312 C 321.1875 128.019531 327.394531 147.386719 343.832031 162.828125 C 365.65625 183.324219 387.503906 188.105469 387.523438 188.105469 C 387.621094 188.105469 387.703125 188.183594 387.703125 188.28125 C 387.703125 188.324219 387.683594 188.355469 387.660156 188.386719 C 387.652344 188.394531 387.648438 188.402344 387.636719 188.410156 C 385.417969 191.296875 356.703125 228.75 356.703125 228.75 L 372.757812 228.75 C 386.667969 217.160156 423.132812 194.0625 432.152344 193.796875 C 496.285156 191.886719 529.011719 151.613281 530.441406 117.515625 C 532.214844 75.207031 489.023438 38.960938 430.722656 36.5625 "/>
</g>
</svg>
