<!-- Created with Inkscape (http://www.inkscape.org/) --><svg xmlns:dc="http://purl.org/dc/elements/1.1/" xmlns:cc="http://creativecommons.org/ns#" xmlns:rdf="http://www.w3.org/1999/02/22-rdf-syntax-ns#" xmlns:svg="http://www.w3.org/2000/svg" xmlns="http://www.w3.org/2000/svg" xmlns:sodipodi="http://sodipodi.sourceforge.net/DTD/sodipodi-0.dtd" xmlns:inkscape="http://www.inkscape.org/namespaces/inkscape" version="1.1" id="svg2" xml:space="preserve" width="566.92932" height="463.90799" viewBox="0 0 566.92932 463.90799" sodipodi:docname="Luke_FI_virall_CMYK.svgz" inkscape:version="0.92.4 (5da689c313, 2019-01-14)"><metadata id="metadata8"><rdf:RDF><cc:Work rdf:about=""><dc:format>image/svg+xml</dc:format><dc:type rdf:resource="http://purl.org/dc/dcmitype/StillImage"/><dc:title/></cc:Work></rdf:RDF></metadata><defs id="defs6"><clipPath clipPathUnits="userSpaceOnUse" id="clipPath18"><path d="M 0,347.931 H 425.197 V 0 H 0 Z" id="path16" inkscape:connector-curvature="0"/></clipPath></defs><sodipodi:namedview pagecolor="#ffffff" bordercolor="#666666" borderopacity="1" objecttolerance="10" gridtolerance="10" guidetolerance="10" inkscape:pageopacity="0" inkscape:pageshadow="2" inkscape:window-width="1920" inkscape:window-height="1051" id="namedview4" showgrid="false" inkscape:zoom="1.4388819" inkscape:cx="189.04355" inkscape:cy="180.9726" inkscape:window-x="0" inkscape:window-y="0" inkscape:window-maximized="1" inkscape:current-layer="layer4"/><svg:g inkscape:groupmode="layer" id="layer3" inkscape:label="bubble" style="display:inline"><svg:g id="g20" transform="matrix(1.3333333,0,0,-1.3333333,458.88666,163.96387)"><svg:path d="m 0,0 c -9.822,-8.131 -24.458,-11.478 -37.846,-10.412 9.828,17.965 22.474,36.709 22.474,36.709 h -1.644 c -4.07,-3.038 -20.348,-15.723 -34.923,-33.708 -4.174,1.546 -7.903,3.637 -10.891,6.273 -18.599,16.409 -15.312,46.237 3.992,61.896 15.373,12.471 34.317,11.809 50.616,12.038 17.192,0.242 29.863,4.551 29.863,4.551 C 21.641,77.347 32.642,27.023 0,0 m -21.122,95.552 c -43.726,1.8 -80.312,-22.461 -81.579,-54.195 -0.574,-14.4 4.081,-28.923 16.41,-40.504 16.367,-15.374 32.753,-18.959 32.77,-18.959 0.073,0 0.133,-0.059 0.133,-0.133 0,-0.03 -0.015,-0.055 -0.032,-0.077 -0.006,-0.007 -0.009,-0.014 -0.016,-0.02 -1.665,-2.165 -23.201,-30.253 -23.201,-30.253 h 12.039 c 10.434,8.693 37.782,26.014 44.546,26.215 48.102,1.433 72.647,31.637 73.718,57.211 1.329,31.732 -31.064,58.916 -74.788,60.715" style="fill:#40c1ea;fill-opacity:1;fill-rule:nonzero;stroke:none" id="path22" inkscape:connector-curvature="0"/></svg:g></svg:g></svg>