<!-- Created with Inkscape (http://www.inkscape.org/) --><svg xmlns:dc="http://purl.org/dc/elements/1.1/" xmlns:cc="http://creativecommons.org/ns#" xmlns:rdf="http://www.w3.org/1999/02/22-rdf-syntax-ns#" xmlns:svg="http://www.w3.org/2000/svg" xmlns="http://www.w3.org/2000/svg" xmlns:sodipodi="http://sodipodi.sourceforge.net/DTD/sodipodi-0.dtd" xmlns:inkscape="http://www.inkscape.org/namespaces/inkscape" version="1.1" id="svg2" xml:space="preserve" width="566.92932" height="463.90799" viewBox="0 0 566.92932 463.90799" sodipodi:docname="Luke_FI_virall_CMYK.svgz" inkscape:version="0.92.4 (5da689c313, 2019-01-14)"><metadata id="metadata8"><rdf:RDF><cc:Work rdf:about=""><dc:format>image/svg+xml</dc:format><dc:type rdf:resource="http://purl.org/dc/dcmitype/StillImage"/><dc:title/></cc:Work></rdf:RDF></metadata><defs id="defs6"><clipPath clipPathUnits="userSpaceOnUse" id="clipPath18"><path d="M 0,347.931 H 425.197 V 0 H 0 Z" id="path16" inkscape:connector-curvature="0"/></clipPath></defs><sodipodi:namedview pagecolor="#ffffff" bordercolor="#666666" borderopacity="1" objecttolerance="10" gridtolerance="10" guidetolerance="10" inkscape:pageopacity="0" inkscape:pageshadow="2" inkscape:window-width="1920" inkscape:window-height="1051" id="namedview4" showgrid="false" inkscape:zoom="1.4388819" inkscape:cx="189.04355" inkscape:cy="180.9726" inkscape:window-x="0" inkscape:window-y="0" inkscape:window-maximized="1" inkscape:current-layer="layer4"/><svg:g inkscape:groupmode="layer" id="layer1" inkscape:label="text" style="display:inline"><svg:g transform="matrix(1.3333333,0,0,-1.3333333,0,463.908)" id="g4768"><svg:g transform="translate(45.473,62.3789)" id="g40"><svg:path inkscape:connector-curvature="0" id="path42" style="fill:#3d3b3c;fill-opacity:1;fill-rule:nonzero;stroke:none" d="M 0,0 H -2.789 V -21.39 H 9.672 v 2.323 H 0 Z"/></svg:g><svg:g transform="translate(69.8059,49.111)" id="g44"><svg:path inkscape:connector-curvature="0" id="path46" style="fill:#3d3b3c;fill-opacity:1;fill-rule:nonzero;stroke:none" d="m 0,0 c 0,-4.806 -1.334,-6.107 -4.897,-6.107 -3.814,0 -5.148,1.301 -5.148,6.107 v 13.267 h -2.789 V 0 c 0,-6.325 2.14,-8.433 7.873,-8.433 5.518,0 7.75,2.108 7.75,8.433 V 13.267 H 0 Z"/></svg:g><svg:g transform="translate(84.2781,43.0037)" id="g48"><svg:path inkscape:connector-curvature="0" id="path50" style="fill:#3d3b3c;fill-opacity:1;fill-rule:nonzero;stroke:none" d="m 0,0 c -4.432,0 -5.363,1.549 -5.363,8.68 0,7.13 0.931,8.679 5.363,8.679 4.434,0 5.363,-1.549 5.363,-8.679 C 5.363,1.549 4.434,0 0,0 m 0,19.684 c -6.479,0 -8.307,-2.417 -8.307,-11.004 0,-8.588 1.828,-11.005 8.307,-11.005 6.479,0 8.309,2.417 8.309,11.005 0,8.587 -1.83,11.004 -8.309,11.004"/></svg:g><svg:g transform="translate(109.7581,45.1737)" id="g52"><svg:path inkscape:connector-curvature="0" id="path54" style="fill:#3d3b3c;fill-opacity:1;fill-rule:nonzero;stroke:none" d="m 0,0 -9.363,17.205 h -3.222 V -4.184 h 2.788 l -0.03,17.11 9.362,-17.11 H 2.79 V 17.205 H 0 Z"/></svg:g><svg:g transform="translate(130.2761,45.1737)" id="g56"><svg:path inkscape:connector-curvature="0" id="path58" style="fill:#3d3b3c;fill-opacity:1;fill-rule:nonzero;stroke:none" d="m 0,0 -9.362,17.205 h -3.223 V -4.184 h 2.789 l -0.03,17.11 9.361,-17.11 H 2.791 V 17.205 H 0 Z"/></svg:g><svg:g transform="translate(145.9572,43.0037)" id="g60"><svg:path inkscape:connector-curvature="0" id="path62" style="fill:#3d3b3c;fill-opacity:1;fill-rule:nonzero;stroke:none" d="m 0,0 c -4.432,0 -5.363,1.549 -5.363,8.68 0,7.13 0.931,8.679 5.363,8.679 4.434,0 5.363,-1.549 5.363,-8.679 C 5.363,1.549 4.434,0 0,0 m 0,19.684 c -6.479,0 -8.307,-2.417 -8.307,-11.004 0,-8.588 1.828,-11.005 8.307,-11.005 6.479,0 8.309,2.417 8.309,11.005 0,8.587 -1.83,11.004 -8.309,11.004"/></svg:g><svg:g transform="translate(171.4371,45.1737)" id="g64"><svg:path inkscape:connector-curvature="0" id="path66" style="fill:#3d3b3c;fill-opacity:1;fill-rule:nonzero;stroke:none" d="m 0,0 -9.363,17.205 h -3.222 V -4.184 h 2.789 l -0.03,17.11 9.361,-17.11 H 2.79 V 17.205 H 0 Z"/></svg:g><svg:g transform="translate(192.3953,62.3789)" id="g68"><svg:path inkscape:connector-curvature="0" id="path70" style="fill:#3d3b3c;fill-opacity:1;fill-rule:nonzero;stroke:none" d="M 0,0 -5.703,-19.067 -11.437,0 h -3.102 l 6.852,-21.39 h 3.966 L 3.1,0 Z"/></svg:g><svg:g transform="translate(199.8879,48.925)" id="g72"><svg:path inkscape:connector-curvature="0" id="path74" style="fill:#3d3b3c;fill-opacity:1;fill-rule:nonzero;stroke:none" d="M 0,0 3.441,11.437 6.881,0 Z m 1.519,13.454 -6.851,-21.39 h 2.945 l 1.673,5.611 h 8.309 l 1.704,-5.611 h 2.946 l -6.759,21.39 z"/></svg:g><svg:g transform="translate(222.2043,51.7458)" id="g76"><svg:path inkscape:connector-curvature="0" id="path78" style="fill:#3d3b3c;fill-opacity:1;fill-rule:nonzero;stroke:none" d="m 0,0 h -4.402 v 8.524 c 1.395,0.061 2.915,0.093 4.185,0.093 3.287,0 4.371,-0.992 4.371,-4.308 C 4.154,1.208 2.976,0 0,0 m 7.038,4.37 c 0,4.899 -2.017,6.572 -7.503,6.572 -2.201,0 -4.96,-0.124 -6.726,-0.309 v -21.39 h 2.789 v 8.432 h 4.309 0.558 l 3.844,-8.432 h 3.162 l -4.464,8.772 c 2.789,0.776 4.031,2.76 4.031,6.355"/></svg:g><svg:g transform="translate(237.2048,48.925)" id="g80"><svg:path inkscape:connector-curvature="0" id="path82" style="fill:#3d3b3c;fill-opacity:1;fill-rule:nonzero;stroke:none" d="M 0,0 3.441,11.437 6.881,0 Z m 1.52,13.454 -6.852,-21.39 h 2.945 l 1.673,5.611 H 7.595 L 9.3,-7.936 h 2.945 l -6.758,21.39 z"/></svg:g><svg:g transform="translate(267.7679,62.3789)" id="g84"><svg:path inkscape:connector-curvature="0" id="path86" style="fill:#3d3b3c;fill-opacity:1;fill-rule:nonzero;stroke:none" d="m 0,0 h -3.225 l -6.292,-10.014 h -3.131 V 0 h -2.789 v -21.39 h 2.789 v 9.051 h 3.193 l 6.324,-9.051 h 3.317 l -7.502,10.23 z"/></svg:g><svg:g transform="translate(270.958,40.9892)" id="g88"><svg:path inkscape:connector-curvature="0" id="path90" style="fill:#3d3b3c;fill-opacity:1;fill-rule:nonzero;stroke:none" d="M 0,0 H 13.205 V 2.323 H 2.789 v 7.193 h 8.867 v 2.325 H 2.789 v 7.222 H 13.205 V 21.39 H 0 Z"/></svg:g><svg:g transform="translate(294.7926,53.1094)" id="g92"><svg:path inkscape:connector-curvature="0" id="path94" style="fill:#3d3b3c;fill-opacity:1;fill-rule:nonzero;stroke:none" d="m 0,0 c -4.525,1.704 -4.929,1.86 -4.929,4.402 0,2.139 1.055,2.852 4.309,2.852 1.303,0.03 3.627,-0.187 5.581,-0.466 l 0.216,2.17 c -1.673,0.341 -3.936,0.62 -5.704,0.62 -5.269,0 -7.254,-1.363 -7.254,-5.269 0,-3.939 0.714,-4.588 6.324,-6.634 4.619,-1.704 5.116,-1.954 5.116,-4.154 0,-2.728 -1.116,-3.627 -4.341,-3.627 -1.736,0 -4.37,0.25 -6.633,0.527 l -0.217,-2.2 c 1.892,-0.373 4.465,-0.652 6.882,-0.652 5.238,0 7.129,1.611 7.129,5.983 C 6.479,-2.573 5.767,-1.985 0,0"/></svg:g><svg:g transform="translate(320.7687,62.3789)" id="g96"><svg:path inkscape:connector-curvature="0" id="path98" style="fill:#3d3b3c;fill-opacity:1;fill-rule:nonzero;stroke:none" d="m 0,0 h -3.223 l -6.294,-10.014 h -3.131 V 0 h -2.789 v -21.39 h 2.789 v 9.051 h 3.193 l 6.324,-9.051 h 3.318 l -7.503,10.23 z"/></svg:g><svg:g transform="translate(336.2037,49.111)" id="g100"><svg:path inkscape:connector-curvature="0" id="path102" style="fill:#3d3b3c;fill-opacity:1;fill-rule:nonzero;stroke:none" d="m 0,0 c 0,-4.806 -1.334,-6.107 -4.897,-6.107 -3.814,0 -5.147,1.301 -5.147,6.107 v 13.267 h -2.789 V 0 c 0,-6.325 2.139,-8.433 7.872,-8.433 5.518,0 7.75,2.108 7.75,8.433 V 13.267 H 0 Z"/></svg:g><svg:g transform="translate(350.242,53.1094)" id="g104"><svg:path inkscape:connector-curvature="0" id="path106" style="fill:#3d3b3c;fill-opacity:1;fill-rule:nonzero;stroke:none" d="m 0,0 c -4.525,1.704 -4.929,1.86 -4.929,4.402 0,2.139 1.055,2.852 4.309,2.852 1.303,0.03 3.627,-0.187 5.581,-0.466 l 0.216,2.17 c -1.673,0.341 -3.936,0.62 -5.704,0.62 -5.269,0 -7.254,-1.363 -7.254,-5.269 0,-3.939 0.714,-4.588 6.324,-6.634 4.62,-1.704 5.116,-1.954 5.116,-4.154 0,-2.728 -1.116,-3.627 -4.341,-3.627 -1.736,0 -4.37,0.25 -6.634,0.527 l -0.216,-2.2 c 1.892,-0.373 4.465,-0.652 6.882,-0.652 5.238,0 7.129,1.611 7.129,5.983 C 6.479,-2.573 5.767,-1.985 0,0"/></svg:g></svg:g></svg:g></svg>