<!-- Created with Inkscape (http://www.inkscape.org/) --><svg xmlns:dc="http://purl.org/dc/elements/1.1/" xmlns:cc="http://creativecommons.org/ns#" xmlns:rdf="http://www.w3.org/1999/02/22-rdf-syntax-ns#" xmlns:svg="http://www.w3.org/2000/svg" xmlns="http://www.w3.org/2000/svg" xmlns:sodipodi="http://sodipodi.sourceforge.net/DTD/sodipodi-0.dtd" xmlns:inkscape="http://www.inkscape.org/namespaces/inkscape" version="1.1" id="svg2" xml:space="preserve" width="566.92932" height="507.60266" viewBox="0 0 566.92932 507.60266" sodipodi:docname="Luke_EN_virall_CMYK.tar" inkscape:version="0.92.4 (5da689c313, 2019-01-14)"><metadata id="metadata8"><rdf:RDF><cc:Work rdf:about=""><dc:format>image/svg+xml</dc:format><dc:type rdf:resource="http://purl.org/dc/dcmitype/StillImage"/><dc:title/></cc:Work></rdf:RDF></metadata><defs id="defs6"><clipPath clipPathUnits="userSpaceOnUse" id="clipPath18"><path d="M 0,380.702 H 425.197 V 0 H 0 Z" id="path16" inkscape:connector-curvature="0"/></clipPath></defs><sodipodi:namedview pagecolor="#ffffff" bordercolor="#666666" borderopacity="1" objecttolerance="10" gridtolerance="10" guidetolerance="10" inkscape:pageopacity="0" inkscape:pageshadow="2" inkscape:window-width="1859" inkscape:window-height="919" id="namedview4" showgrid="false" inkscape:zoom="0.46493058" inkscape:cx="354.443" inkscape:cy="253.80133" inkscape:window-x="0" inkscape:window-y="0" inkscape:window-maximized="0" inkscape:current-layer="layer1"/><svg:g inkscape:groupmode="layer" id="layer1" inkscape:label="text_en"><svg:g transform="matrix(1.3333333,0,0,-1.3333333,0,507.60267)" style="" id="g4069"><svg:g transform="translate(58.0606,73.7609)" id="g40"><svg:path inkscape:connector-curvature="0" id="path42" style="fill:#3d3b3c;fill-opacity:1;fill-rule:nonzero;stroke:none" d="M 0,0 H -3.259 L -12.632,17.133 -12.601,0 h -2.794 v 21.416 h 3.228 L -2.793,4.19 V 21.416 H 0 Z"/></svg:g><svg:g transform="translate(69.7009,93.1594)" id="g44"><svg:path inkscape:connector-curvature="0" id="path46" style="fill:#3d3b3c;fill-opacity:1;fill-rule:nonzero;stroke:none" d="m 0,0 -3.445,-11.453 h 6.891 z m -4.159,-13.781 -1.676,-5.617 H -8.783 L -1.924,2.018 H 2.049 L 8.815,-19.398 H 5.866 l -1.707,5.617 z"/></svg:g><svg:g transform="translate(86.7731,92.849)" id="g48"><svg:path inkscape:connector-curvature="0" id="path50" style="fill:#3d3b3c;fill-opacity:1;fill-rule:nonzero;stroke:none" d="M 0,0 V -19.088 H -2.794 V 0 H -9.436 V 2.328 H 6.611 V 0 Z"/></svg:g><svg:g transform="translate(112.0084,81.8929)" id="g52"><svg:path inkscape:connector-curvature="0" id="path54" style="fill:#3d3b3c;fill-opacity:1;fill-rule:nonzero;stroke:none" d="m 0,0 c 0,-6.332 -2.235,-8.442 -7.76,-8.442 -5.742,0 -7.883,2.11 -7.883,8.442 v 13.284 h 2.793 V 0 c 0,-4.811 1.335,-6.114 5.152,-6.114 3.57,0 4.904,1.303 4.904,6.114 V 13.284 H 0 Z"/></svg:g><svg:g transform="translate(123.7416,84.5312)" id="g56"><svg:path inkscape:connector-curvature="0" id="path58" style="fill:#3d3b3c;fill-opacity:1;fill-rule:nonzero;stroke:none" d="m 0,0 c 2.979,0 4.159,1.21 4.159,4.314 0,3.321 -1.086,4.314 -4.377,4.314 -1.272,0 -2.793,-0.031 -4.189,-0.093 V 0 Z m 0.466,-2.328 h -0.559 -4.314 v -8.442 h -2.794 v 21.416 c 1.77,0.186 4.531,0.31 6.735,0.31 5.494,0 7.512,-1.676 7.512,-6.58 0,-3.6 -1.242,-5.587 -4.036,-6.362 L 7.48,-10.77 H 4.314 Z"/></svg:g><svg:g transform="translate(141.5586,93.1594)" id="g60"><svg:path inkscape:connector-curvature="0" id="path62" style="fill:#3d3b3c;fill-opacity:1;fill-rule:nonzero;stroke:none" d="m 0,0 -3.445,-11.453 h 6.89 z m -4.159,-13.781 -1.676,-5.617 H -8.783 L -1.924,2.018 H 2.049 L 8.815,-19.398 H 5.866 l -1.707,5.617 z"/></svg:g><svg:g transform="translate(165.707,73.7609)" id="g64"><svg:path inkscape:connector-curvature="0" id="path66" style="fill:#3d3b3c;fill-opacity:1;fill-rule:nonzero;stroke:none" d="m 0,0 h -12.477 v 21.416 h 2.794 V 2.328 H 0 Z"/></svg:g><svg:g transform="translate(183.5869,84.5312)" id="g68"><svg:path inkscape:connector-curvature="0" id="path70" style="fill:#3d3b3c;fill-opacity:1;fill-rule:nonzero;stroke:none" d="m 0,0 c 2.979,0 4.159,1.21 4.159,4.314 0,3.321 -1.086,4.314 -4.376,4.314 -1.273,0 -2.793,-0.031 -4.19,-0.093 V 0 Z m 0.466,-2.328 h -0.559 -4.314 v -8.442 h -2.794 v 21.416 c 1.77,0.186 4.531,0.31 6.735,0.31 5.494,0 7.512,-1.676 7.512,-6.58 0,-3.6 -1.242,-5.587 -4.036,-6.362 L 7.48,-10.77 H 4.314 Z"/></svg:g><svg:g transform="translate(197.0589,85.617)" id="g72"><svg:path inkscape:connector-curvature="0" id="path74" style="fill:#3d3b3c;fill-opacity:1;fill-rule:nonzero;stroke:none" d="M 0,0 H 8.877 V -2.327 H 0 v -7.201 h 10.429 v -2.328 H -2.794 V 9.56 H 10.429 V 7.232 H 0 Z"/></svg:g><svg:g transform="translate(223.2866,94.8666)" id="g76"><svg:path inkscape:connector-curvature="0" id="path78" style="fill:#3d3b3c;fill-opacity:1;fill-rule:nonzero;stroke:none" d="m 0,0 -0.217,-2.173 c -1.955,0.279 -4.283,0.497 -5.587,0.466 -3.259,0 -4.314,-0.714 -4.314,-2.855 0,-2.546 0.404,-2.701 4.935,-4.408 5.773,-1.986 6.487,-2.576 6.487,-6.456 0,-4.376 -1.894,-5.99 -7.139,-5.99 -2.421,0 -4.997,0.279 -6.89,0.652 l 0.217,2.203 c 2.266,-0.279 4.904,-0.527 6.642,-0.527 3.228,0 4.345,0.9 4.345,3.631 0,2.204 -0.497,2.452 -5.121,4.159 -5.617,2.048 -6.332,2.7 -6.332,6.642 0,3.911 1.987,5.277 7.264,5.277 C -3.942,0.621 -1.676,0.342 0,0"/></svg:g><svg:g transform="translate(230.3962,84.4689)" id="g80"><svg:path inkscape:connector-curvature="0" id="path82" style="fill:#3d3b3c;fill-opacity:1;fill-rule:nonzero;stroke:none" d="m 0,0 c 0,-7.138 0.931,-8.69 5.369,-8.69 4.438,0 5.37,1.552 5.37,8.69 0,7.139 -0.932,8.691 -5.37,8.691 C 0.931,8.691 0,7.139 0,0 m 13.687,0 c 0,-8.598 -1.831,-11.018 -8.318,-11.018 -6.487,0 -8.318,2.42 -8.318,11.018 0,8.598 1.831,11.018 8.318,11.018 6.487,0 8.318,-2.42 8.318,-11.018"/></svg:g><svg:g transform="translate(263.7012,81.8929)" id="g84"><svg:path inkscape:connector-curvature="0" id="path86" style="fill:#3d3b3c;fill-opacity:1;fill-rule:nonzero;stroke:none" d="m 0,0 c 0,-6.332 -2.235,-8.442 -7.76,-8.442 -5.742,0 -7.883,2.11 -7.883,8.442 v 13.284 h 2.793 V 0 c 0,-4.811 1.335,-6.114 5.152,-6.114 3.57,0 4.904,1.303 4.904,6.114 V 13.284 H 0 Z"/></svg:g><svg:g transform="translate(276.0551,84.5312)" id="g88"><svg:path inkscape:connector-curvature="0" id="path90" style="fill:#3d3b3c;fill-opacity:1;fill-rule:nonzero;stroke:none" d="m 0,0 c 2.979,0 4.159,1.21 4.159,4.314 0,3.321 -1.086,4.314 -4.376,4.314 -1.273,0 -2.793,-0.031 -4.19,-0.093 V 0 Z m 0.466,-2.328 h -0.559 -4.314 v -8.442 h -2.794 v 21.416 c 1.77,0.186 4.532,0.31 6.736,0.31 5.493,0 7.511,-1.676 7.511,-6.58 0,-3.6 -1.242,-5.587 -4.036,-6.362 L 7.48,-10.77 H 4.314 Z"/></svg:g><svg:g transform="translate(300.6074,95.1769)" id="g92"><svg:path inkscape:connector-curvature="0" id="path94" style="fill:#3d3b3c;fill-opacity:1;fill-rule:nonzero;stroke:none" d="m 0,0 -0.062,-2.204 c -1.924,0.124 -3.848,0.186 -5.338,0.186 -4.842,0 -6.115,-1.613 -6.115,-8.69 0,-7.077 1.273,-8.69 6.115,-8.69 1.49,0 3.414,0.061 5.338,0.186 L 0,-21.416 c -1.8,-0.186 -4.066,-0.31 -5.649,-0.31 -6.921,0 -8.846,2.42 -8.846,11.018 0,8.598 2.049,11.018 8.846,11.018 C -4.066,0.31 -1.8,0.186 0,0"/></svg:g><svg:g transform="translate(306.9081,85.617)" id="g96"><svg:path inkscape:connector-curvature="0" id="path98" style="fill:#3d3b3c;fill-opacity:1;fill-rule:nonzero;stroke:none" d="M 0,0 H 8.877 V -2.327 H 0 v -7.201 h 10.429 v -2.328 H -2.793 V 9.56 H 10.429 V 7.232 H 0 Z"/></svg:g><svg:g transform="translate(333.1976,94.8666)" id="g100"><svg:path inkscape:connector-curvature="0" id="path102" style="fill:#3d3b3c;fill-opacity:1;fill-rule:nonzero;stroke:none" d="m 0,0 -0.217,-2.173 c -1.955,0.279 -4.283,0.497 -5.587,0.466 -3.259,0 -4.314,-0.714 -4.314,-2.855 0,-2.546 0.403,-2.701 4.935,-4.408 5.773,-1.986 6.487,-2.576 6.487,-6.456 0,-4.376 -1.894,-5.99 -7.139,-5.99 -2.421,0 -4.997,0.279 -6.89,0.652 l 0.217,2.203 c 2.266,-0.279 4.904,-0.527 6.642,-0.527 3.228,0 4.345,0.9 4.345,3.631 0,2.204 -0.497,2.452 -5.121,4.159 -5.618,2.048 -6.332,2.7 -6.332,6.642 0,3.911 1.987,5.277 7.263,5.277 C -3.942,0.621 -1.676,0.342 0,0"/></svg:g><svg:path inkscape:connector-curvature="0" id="path104" style="fill:#3d3b3c;fill-opacity:1;fill-rule:nonzero;stroke:none" d="M 42.666,62.405 H 45.46 V 40.989 h -2.794 z"/><svg:g transform="translate(65.9757,40.9893)" id="g106"><svg:path inkscape:connector-curvature="0" id="path108" style="fill:#3d3b3c;fill-opacity:1;fill-rule:nonzero;stroke:none" d="M 0,0 H -3.259 L -12.632,17.133 -12.601,0 h -2.794 v 21.416 h 3.228 L -2.793,4.19 V 21.416 H 0 Z"/></svg:g><svg:g transform="translate(82.9855,62.0949)" id="g110"><svg:path inkscape:connector-curvature="0" id="path112" style="fill:#3d3b3c;fill-opacity:1;fill-rule:nonzero;stroke:none" d="m 0,0 -0.217,-2.173 c -1.955,0.279 -4.283,0.497 -5.587,0.466 -3.259,0 -4.314,-0.714 -4.314,-2.855 0,-2.546 0.404,-2.701 4.935,-4.408 5.773,-1.986 6.487,-2.576 6.487,-6.456 0,-4.376 -1.894,-5.99 -7.139,-5.99 -2.421,0 -4.997,0.279 -6.89,0.652 l 0.217,2.203 c 2.266,-0.279 4.904,-0.527 6.642,-0.527 3.228,0 4.345,0.9 4.345,3.631 0,2.204 -0.497,2.452 -5.121,4.159 -5.617,2.049 -6.332,2.7 -6.332,6.642 0,3.911 1.987,5.277 7.264,5.277 C -3.942,0.621 -1.676,0.342 0,0"/></svg:g><svg:g transform="translate(95.0291,60.0774)" id="g114"><svg:path inkscape:connector-curvature="0" id="path116" style="fill:#3d3b3c;fill-opacity:1;fill-rule:nonzero;stroke:none" d="M 0,0 V -19.088 H -2.793 V 0 H -9.436 V 2.328 H 6.611 V 0 Z"/></svg:g><svg:path inkscape:connector-curvature="0" id="path118" style="fill:#3d3b3c;fill-opacity:1;fill-rule:nonzero;stroke:none" d="m 104.651,62.405 h 2.794 V 40.989 h -2.794 z"/><svg:g transform="translate(119.8907,60.0774)" id="g120"><svg:path inkscape:connector-curvature="0" id="path122" style="fill:#3d3b3c;fill-opacity:1;fill-rule:nonzero;stroke:none" d="M 0,0 V -19.088 H -2.794 V 0 H -9.436 V 2.328 H 6.611 V 0 Z"/></svg:g><svg:g transform="translate(144.0068,49.1212)" id="g124"><svg:path inkscape:connector-curvature="0" id="path126" style="fill:#3d3b3c;fill-opacity:1;fill-rule:nonzero;stroke:none" d="m 0,0 c 0,-6.332 -2.235,-8.442 -7.76,-8.442 -5.742,0 -7.883,2.11 -7.883,8.442 v 13.284 h 2.793 V 0 c 0,-4.811 1.335,-6.114 5.153,-6.114 3.569,0 4.904,1.303 4.904,6.114 V 13.284 H 0 Z"/></svg:g><svg:g transform="translate(155.8023,60.0774)" id="g128"><svg:path inkscape:connector-curvature="0" id="path130" style="fill:#3d3b3c;fill-opacity:1;fill-rule:nonzero;stroke:none" d="M 0,0 V -19.088 H -2.794 V 0 H -9.436 V 2.328 H 6.611 V 0 Z"/></svg:g><svg:g transform="translate(168.1568,52.8454)" id="g132"><svg:path inkscape:connector-curvature="0" id="path134" style="fill:#3d3b3c;fill-opacity:1;fill-rule:nonzero;stroke:none" d="M 0,0 H 8.877 V -2.327 H 0 v -7.201 h 10.429 v -2.328 H -2.794 V 9.56 H 10.429 V 7.232 H 0 Z"/></svg:g><svg:g transform="translate(195.1955,52.1317)" id="g136"><svg:path inkscape:connector-curvature="0" id="path138" style="fill:#3d3b3c;fill-opacity:1;fill-rule:nonzero;stroke:none" d="M 0,0 H 8.814 V -2.297 H 0 v -8.845 H -2.794 V 10.274 H 10.367 V 7.946 H 0 Z"/></svg:g><svg:path inkscape:connector-curvature="0" id="path140" style="fill:#3d3b3c;fill-opacity:1;fill-rule:nonzero;stroke:none" d="m 209.014,62.405 h 2.794 V 40.989 h -2.794 z"/><svg:g transform="translate(232.3238,40.9893)" id="g142"><svg:path inkscape:connector-curvature="0" id="path144" style="fill:#3d3b3c;fill-opacity:1;fill-rule:nonzero;stroke:none" d="M 0,0 H -3.259 L -12.632,17.133 -12.601,0 h -2.794 v 21.416 h 3.228 L -2.793,4.19 V 21.416 H 0 Z"/></svg:g><svg:g transform="translate(250.5441,40.9893)" id="g146"><svg:path inkscape:connector-curvature="0" id="path148" style="fill:#3d3b3c;fill-opacity:1;fill-rule:nonzero;stroke:none" d="m 0,0 h -12.477 v 21.416 h 2.794 V 2.328 H 0 Z"/></svg:g><svg:g transform="translate(260.0745,60.3877)" id="g150"><svg:path inkscape:connector-curvature="0" id="path152" style="fill:#3d3b3c;fill-opacity:1;fill-rule:nonzero;stroke:none" d="m 0,0 -3.445,-11.453 h 6.89 z m -4.159,-13.781 -1.676,-5.617 H -8.783 L -1.924,2.018 H 2.049 L 8.815,-19.398 H 5.866 l -1.707,5.617 z"/></svg:g><svg:g transform="translate(287.7612,40.9893)" id="g154"><svg:path inkscape:connector-curvature="0" id="path156" style="fill:#3d3b3c;fill-opacity:1;fill-rule:nonzero;stroke:none" d="M 0,0 H -3.259 L -12.632,17.133 -12.601,0 h -2.794 v 21.416 h 3.228 L -2.793,4.19 V 21.416 H 0 Z"/></svg:g><svg:g transform="translate(305.6711,51.8213)" id="g158"><svg:path inkscape:connector-curvature="0" id="path160" style="fill:#3d3b3c;fill-opacity:1;fill-rule:nonzero;stroke:none" d="m 0,0 c 0,6.922 -1.117,8.566 -5.928,8.566 -1.179,0 -2.638,-0.062 -4.066,-0.124 V -8.69 c 1.366,-0.063 2.763,-0.124 3.973,-0.124 C -1.21,-8.814 0,-7.201 0,0 m 2.856,0 c 0,-8.411 -2.204,-11.142 -8.97,-11.142 -1.738,0 -4.408,0.124 -6.673,0.31 v 21.416 c 2.265,0.186 5.152,0.31 6.859,0.31 6.611,0 8.784,-2.669 8.784,-10.894"/></svg:g></svg:g></svg:g></svg>