<!-- Created with Inkscape (http://www.inkscape.org/) --><svg xmlns:dc="http://purl.org/dc/elements/1.1/" xmlns:cc="http://creativecommons.org/ns#" xmlns:rdf="http://www.w3.org/1999/02/22-rdf-syntax-ns#" xmlns:svg="http://www.w3.org/2000/svg" xmlns="http://www.w3.org/2000/svg" xmlns:sodipodi="http://sodipodi.sourceforge.net/DTD/sodipodi-0.dtd" xmlns:inkscape="http://www.inkscape.org/namespaces/inkscape" version="1.1" id="svg2" xml:space="preserve" width="566.92932" height="463.90799" viewBox="0 0 566.92932 463.90799" sodipodi:docname="Luke_SE_virall_CMYK.tar" inkscape:version="0.92.4 (5da689c313, 2019-01-14)"><metadata id="metadata8"><rdf:RDF><cc:Work rdf:about=""><dc:format>image/svg+xml</dc:format><dc:type rdf:resource="http://purl.org/dc/dcmitype/StillImage"/><dc:title/></cc:Work></rdf:RDF></metadata><defs id="defs6"><clipPath clipPathUnits="userSpaceOnUse" id="clipPath18"><path d="M 0,347.931 H 425.197 V 0 H 0 Z" id="path16" inkscape:connector-curvature="0"/></clipPath></defs><sodipodi:namedview pagecolor="#ffffff" bordercolor="#666666" borderopacity="1" objecttolerance="10" gridtolerance="10" guidetolerance="10" inkscape:pageopacity="0" inkscape:pageshadow="2" inkscape:window-width="1795" inkscape:window-height="1047" id="namedview4" showgrid="false" inkscape:zoom="0.50872157" inkscape:cx="348.33315" inkscape:cy="231.95399" inkscape:window-x="0" inkscape:window-y="0" inkscape:window-maximized="0" inkscape:current-layer="layer1"/><svg:g inkscape:groupmode="layer" id="layer1" inkscape:label="text_se"><svg:g transform="matrix(1.3333333,0,0,-1.3333333,0,463.908)" style="" id="g261"><svg:g transform="translate(58.0993,40.9435)" id="g40"><svg:path inkscape:connector-curvature="0" id="path42" style="fill:#3d3b3c;fill-opacity:1;fill-rule:nonzero;stroke:none" d="M 0,0 H -3.259 L -12.633,17.134 -12.602,0 h -2.793 v 21.417 h 3.228 L -2.793,4.191 V 21.417 H 0 Z"/></svg:g><svg:g transform="translate(69.8643,60.3431)" id="g44"><svg:path inkscape:connector-curvature="0" id="path46" style="fill:#3d3b3c;fill-opacity:1;fill-rule:nonzero;stroke:none" d="M 0,0 -3.445,-11.454 H 3.446 Z M -4.159,-13.782 -5.835,-19.4 h -2.949 l 6.86,21.418 H 2.049 L 8.816,-19.4 H 5.867 l -1.708,5.618 z"/></svg:g><svg:g transform="translate(86.4413,60.0327)" id="g48"><svg:path inkscape:connector-curvature="0" id="path50" style="fill:#3d3b3c;fill-opacity:1;fill-rule:nonzero;stroke:none" d="M 0,0 V -19.089 H -2.794 V 0 H -9.436 V 2.328 H 6.611 V 0 Z"/></svg:g><svg:g transform="translate(111.1808,49.0759)" id="g52"><svg:path inkscape:connector-curvature="0" id="path54" style="fill:#3d3b3c;fill-opacity:1;fill-rule:nonzero;stroke:none" d="m 0,0 c 0,-6.332 -2.235,-8.443 -7.76,-8.443 -5.742,0 -7.884,2.111 -7.884,8.443 v 13.285 h 2.794 V 0 c 0,-4.811 1.334,-6.115 5.152,-6.115 3.57,0 4.904,1.304 4.904,6.115 V 13.285 H 0 Z"/></svg:g><svg:g transform="translate(122.9769,51.7144)" id="g56"><svg:path inkscape:connector-curvature="0" id="path58" style="fill:#3d3b3c;fill-opacity:1;fill-rule:nonzero;stroke:none" d="m 0,0 c 2.98,0 4.159,1.21 4.159,4.314 0,3.322 -1.086,4.315 -4.376,4.315 -1.273,0 -2.794,-0.031 -4.191,-0.093 V 0 Z m 0.466,-2.328 h -0.559 -4.315 v -8.443 h -2.793 v 21.417 c 1.769,0.187 4.531,0.311 6.735,0.311 5.494,0 7.512,-1.676 7.512,-6.581 0,-3.601 -1.242,-5.587 -4.035,-6.363 L 7.48,-10.771 H 4.315 Z"/></svg:g><svg:g transform="translate(142.1607,51.7144)" id="g60"><svg:path inkscape:connector-curvature="0" id="path62" style="fill:#3d3b3c;fill-opacity:1;fill-rule:nonzero;stroke:none" d="m 0,0 c 2.98,0 4.159,1.21 4.159,4.314 0,3.322 -1.086,4.315 -4.376,4.315 -1.273,0 -2.794,-0.031 -4.191,-0.093 V 0 Z m 0.466,-2.328 h -0.559 -4.315 v -8.443 h -2.793 v 21.417 c 1.769,0.187 4.531,0.311 6.735,0.311 5.494,0 7.512,-1.676 7.512,-6.581 0,-3.601 -1.242,-5.587 -4.035,-6.363 L 7.48,-10.771 H 4.315 Z"/></svg:g><svg:g transform="translate(156.9375,52.8003)" id="g64"><svg:path inkscape:connector-curvature="0" id="path66" style="fill:#3d3b3c;fill-opacity:1;fill-rule:nonzero;stroke:none" d="M 0,0 H 8.877 V -2.328 H 0 v -7.201 h 10.429 v -2.328 H -2.794 V 9.56 H 10.429 V 7.232 H 0 Z"/></svg:g><svg:g transform="translate(183.229,62.0504)" id="g68"><svg:path inkscape:connector-curvature="0" id="path70" style="fill:#3d3b3c;fill-opacity:1;fill-rule:nonzero;stroke:none" d="m 0,0 -0.217,-2.173 c -1.955,0.279 -4.283,0.497 -5.587,0.466 -3.259,0 -4.314,-0.714 -4.314,-2.856 0,-2.545 0.403,-2.701 4.934,-4.407 5.774,-1.987 6.488,-2.577 6.488,-6.457 0,-4.376 -1.894,-5.99 -7.14,-5.99 -2.421,0 -4.997,0.279 -6.89,0.652 l 0.217,2.203 c 2.266,-0.279 4.904,-0.527 6.643,-0.527 3.228,0 4.345,0.9 4.345,3.631 0,2.204 -0.496,2.452 -5.121,4.16 -5.618,2.048 -6.332,2.7 -6.332,6.642 0,3.911 1.986,5.277 7.263,5.277 C -3.942,0.621 -1.676,0.342 0,0"/></svg:g><svg:g transform="translate(203.6861,49.0759)" id="g72"><svg:path inkscape:connector-curvature="0" id="path74" style="fill:#3d3b3c;fill-opacity:1;fill-rule:nonzero;stroke:none" d="m 0,0 c 0,-6.332 -2.235,-8.443 -7.76,-8.443 -5.742,0 -7.884,2.111 -7.884,8.443 v 13.285 h 2.794 V 0 c 0,-4.811 1.334,-6.115 5.152,-6.115 3.57,0 4.904,1.304 4.904,6.115 V 13.285 H 0 Z"/></svg:g><svg:g transform="translate(215.1713,51.7144)" id="g76"><svg:path inkscape:connector-curvature="0" id="path78" style="fill:#3d3b3c;fill-opacity:1;fill-rule:nonzero;stroke:none" d="m 0,0 c 2.98,0 4.159,1.21 4.159,4.314 0,3.322 -1.086,4.315 -4.377,4.315 -1.272,0 -2.793,-0.031 -4.19,-0.093 V 0 Z m 0.466,-2.328 h -0.559 -4.315 v -8.443 h -2.793 v 21.417 c 1.769,0.187 4.531,0.311 6.735,0.311 5.494,0 7.512,-1.676 7.512,-6.581 0,-3.601 -1.242,-5.587 -4.035,-6.363 L 7.48,-10.771 H 4.315 Z"/></svg:g><svg:g transform="translate(238.7319,62.0504)" id="g80"><svg:path inkscape:connector-curvature="0" id="path82" style="fill:#3d3b3c;fill-opacity:1;fill-rule:nonzero;stroke:none" d="m 0,0 -0.217,-2.173 c -1.955,0.279 -4.283,0.497 -5.587,0.466 -3.259,0 -4.314,-0.714 -4.314,-2.856 0,-2.545 0.403,-2.701 4.934,-4.407 5.774,-1.987 6.488,-2.577 6.488,-6.457 0,-4.376 -1.894,-5.99 -7.14,-5.99 -2.421,0 -4.997,0.279 -6.89,0.652 l 0.217,2.203 c 2.266,-0.279 4.904,-0.527 6.643,-0.527 3.228,0 4.345,0.9 4.345,3.631 0,2.204 -0.497,2.452 -5.121,4.16 -5.618,2.048 -6.332,2.7 -6.332,6.642 0,3.911 1.986,5.277 7.263,5.277 C -3.942,0.621 -1.676,0.342 0,0"/></svg:g><svg:path inkscape:connector-curvature="0" id="path84" style="fill:#3d3b3c;fill-opacity:1;fill-rule:nonzero;stroke:none" d="m 244.6,62.361 h 2.794 V 40.944 H 244.6 Z"/><svg:g transform="translate(268.2838,40.9435)" id="g86"><svg:path inkscape:connector-curvature="0" id="path88" style="fill:#3d3b3c;fill-opacity:1;fill-rule:nonzero;stroke:none" d="M 0,0 H -3.259 L -12.633,17.134 -12.602,0 h -2.793 v 21.417 h 3.228 L -2.793,4.191 V 21.417 H 0 Z"/></svg:g><svg:g transform="translate(285.5117,62.0504)" id="g90"><svg:path inkscape:connector-curvature="0" id="path92" style="fill:#3d3b3c;fill-opacity:1;fill-rule:nonzero;stroke:none" d="m 0,0 -0.217,-2.173 c -1.955,0.279 -4.283,0.497 -5.587,0.466 -3.259,0 -4.314,-0.714 -4.314,-2.856 0,-2.545 0.403,-2.701 4.934,-4.407 5.774,-1.987 6.488,-2.577 6.488,-6.457 0,-4.376 -1.894,-5.99 -7.14,-5.99 -2.421,0 -4.997,0.279 -6.89,0.652 l 0.217,2.203 c 2.266,-0.279 4.904,-0.527 6.643,-0.527 3.228,0 4.345,0.9 4.345,3.631 0,2.204 -0.496,2.452 -5.121,4.16 -5.618,2.048 -6.332,2.7 -6.332,6.642 0,3.911 1.986,5.277 7.263,5.277 C -3.942,0.621 -1.676,0.342 0,0"/></svg:g><svg:g transform="translate(297.2466,60.0327)" id="g94"><svg:path inkscape:connector-curvature="0" id="path96" style="fill:#3d3b3c;fill-opacity:1;fill-rule:nonzero;stroke:none" d="M 0,0 V -19.089 H -2.794 V 0 H -9.436 V 2.328 H 6.611 V 0 Z"/></svg:g><svg:path inkscape:connector-curvature="0" id="path98" style="fill:#3d3b3c;fill-opacity:1;fill-rule:nonzero;stroke:none" d="m 306.56,62.361 h 2.794 V 40.944 h -2.794 z"/><svg:g transform="translate(321.4904,60.0327)" id="g100"><svg:path inkscape:connector-curvature="0" id="path102" style="fill:#3d3b3c;fill-opacity:1;fill-rule:nonzero;stroke:none" d="M 0,0 V -19.089 H -2.794 V 0 H -9.436 V 2.328 H 6.611 V 0 Z"/></svg:g><svg:g transform="translate(345.2364,49.0759)" id="g104"><svg:path inkscape:connector-curvature="0" id="path106" style="fill:#3d3b3c;fill-opacity:1;fill-rule:nonzero;stroke:none" d="m 0,0 c 0,-6.332 -2.235,-8.443 -7.76,-8.443 -5.742,0 -7.884,2.111 -7.884,8.443 v 13.285 h 2.794 V 0 c 0,-4.811 1.334,-6.115 5.152,-6.115 3.57,0 4.904,1.304 4.904,6.115 V 13.285 H 0 Z"/></svg:g><svg:g transform="translate(357.4052,60.0327)" id="g108"><svg:path inkscape:connector-curvature="0" id="path110" style="fill:#3d3b3c;fill-opacity:1;fill-rule:nonzero;stroke:none" d="M 0,0 V -19.089 H -2.794 V 0 H -9.436 V 2.328 H 6.611 V 0 Z"/></svg:g><svg:g transform="translate(368.891,52.8003)" id="g112"><svg:path inkscape:connector-curvature="0" id="path114" style="fill:#3d3b3c;fill-opacity:1;fill-rule:nonzero;stroke:none" d="M 0,0 H 8.877 V -2.328 H 0 v -7.201 h 10.429 v -2.328 H -2.794 V 9.56 H 10.429 V 7.232 H 0 Z"/></svg:g><svg:g transform="translate(390.8684,60.0327)" id="g116"><svg:path inkscape:connector-curvature="0" id="path118" style="fill:#3d3b3c;fill-opacity:1;fill-rule:nonzero;stroke:none" d="M 0,0 V -19.089 H -2.794 V 0 H -9.436 V 2.328 H 6.611 V 0 Z"/></svg:g></svg:g></svg:g></svg>